<svg width="1200" height="630" viewBox="0 0 1200 630" fill="none" xmlns="http://www.w3.org/2000/svg">
  <defs>
    <linearGradient id="bg" x1="0" y1="0" x2="1200" y2="630" gradientUnits="userSpaceOnUse">
      <stop stop-color="#0B0F19" />
      <stop offset="1" stop-color="#1A1F2E" />
    </linearGradient>
    <linearGradient id="accent" x1="200" y1="90" x2="1000" y2="540" gradientUnits="userSpaceOnUse">
      <stop stop-color="#E8002D" />
      <stop offset="1" stop-color="#FF5C7A" />
    </linearGradient>
  </defs>

  <rect width="1200" height="630" fill="url(#bg)" />
  <path d="M0 480 C220 420 320 560 520 500 C710 440 790 300 1200 360 V630 H0 Z" fill="#11172A" />
  <path d="M0 530 C190 470 360 610 620 520 C860 440 980 360 1200 410" stroke="url(#accent)"
    stroke-width="10" stroke-linecap="round" />
  <circle cx="900" cy="185" r="95" fill="#121A31" stroke="#E8002D" stroke-width="4" />
  <circle cx="900" cy="185" r="52" fill="#0B0F19" stroke="#FF6B87" stroke-width="3" />

  <text x="96" y="248" fill="#FFFFFF" font-size="92" font-family="Arial, Helvetica, sans-serif"
    font-weight="800" letter-spacing="2">F1 REPLAY</text>
  <text x="96" y="320" fill="#FFB7C5" font-size="34" font-family="Arial, Helvetica, sans-serif"
    font-weight="700" letter-spacing="1">Telemetry. Strategy. Live Timing.</text>
  <text x="96" y="378" fill="#C9D1E4" font-size="28" font-family="Arial, Helvetica, sans-serif"
    font-weight="500">Interactive Formula 1 Session Playback</text>

  <rect x="96" y="430" width="355" height="68" rx="10" fill="#E8002D" />
  <text x="122" y="474" fill="#FFFFFF" font-size="30" font-family="Arial, Helvetica, sans-serif"
    font-weight="800">f1replay.app</text>
</svg>